# xmcd
#
# Track frame offsets:
#	150
#	4392
#	20832
#	36536
#	50664
#	67506
#	82042
#	97816
#	114438
#	129124
#	144932
#	160690
#
# Disc length: 2371 seconds
#
# Revision: 1
# Processed by: cddbd v1.5.2PL0 Copyright (c) Steve Scherf et al.
# Submitted via: audiograbber 1.83.01
#
DISCID=9209410c
DTITLE=Nu'est - Re:BIRTH
DYEAR=2014
DGENRE=K-Pop
TTITLE0=Judgement
TTITLE1=Big Deal
TTITLE2=Good Bye Bye
TTITLE3=Love Without Love
TTITLE4=Storybook
TTITLE5=CLIMAX
TTITLE6=Lend A Shoulder
TTITLE7=FACE
TTITLE8=Action
TTITLE9=Hello
TTITLE10=Sleep Talking
TTITLE11=Hey, Love
EXTD=
EXTT0=
EXTT1=
EXTT2=
EXTT3=
EXTT4=
EXTT5=
EXTT6=
EXTT7=
EXTT8=
EXTT9=
EXTT10=
EXTT11=
PLAYORDER=
